<svg xmlns="http://www.w3.org/2000/svg" xmlns:xlink="http://www.w3.org/1999/xlink" viewBox="0 0 358.44 77.5"><defs><style>.cls-1{fill:#00a0db;}.cls-2{fill:#fff;}.cls-2,.cls-3{opacity:0;}.cls-4{clip-path:url(#clip-path);}.cls-5{fill:#d9e021;}</style><clipPath id="clip-path"><path id="_Compound_Clipping_Path_" data-name="&lt;Compound Clipping Path&gt;" class="cls-1" d="M38.44,19.82a6.68,6.68,0,0,0-3.9-3.68l-8.2-3.27A27.14,27.14,0,0,0,12.2,28.14a30.68,30.68,0,0,0-1.38,4.41,12.07,12.07,0,0,1,4.63,1L26,37.78a7.36,7.36,0,0,0,5.28,0,6.26,6.26,0,0,0,3.66-3.68L38.6,25a6.19,6.19,0,0,0-.16-5.22m-11,42.29L40.87,67.5A27.37,27.37,0,0,0,62.23,55.42a10.33,10.33,0,0,0-.57-2.29,6.82,6.82,0,0,0-4-3.67l-9.91-4.08a2.29,2.29,0,0,1-.74.24,3.62,3.62,0,1,1,2.52-4.42l9.84,4a7.8,7.8,0,0,0,5.44,0A7.94,7.94,0,0,0,67,43.74a27.82,27.82,0,0,0-5-21.88L45.91,15.49l1.38-3.43.28-.75a29.41,29.41,0,0,0-14.82-.63l3.41,1.39a11.29,11.29,0,0,1,6.5,6,10.52,10.52,0,0,1,.24,8.57l-3.57,9.14a10.74,10.74,0,0,1-6.17,6,11.65,11.65,0,0,1-8.77,0L13.83,37.62c-4.37-1.43-4,.34-3.64,3.79A29,29,0,0,0,26.45,64.89"/></clipPath></defs><title>Asset 1</title><g id="Layer_2" data-name="Layer 2"><g id="Layer_1-2" data-name="Layer 1"><g id="_Group_" data-name="&lt;Group&gt;"><rect id="_Rectangle_" data-name="&lt;Rectangle&gt;" class="cls-2" x="58.44" y="6.25" width="300" height="65"/><g id="_Group_2" data-name="&lt;Group&gt;"><g id="_Group_3" data-name="&lt;Group&gt;"><path id="_Compound_Path_" data-name="&lt;Compound Path&gt;" class="cls-1" d="M321.34,50.58h-15.2V47.7l2.7-2.85c4.6-4.69,7.29-7.76,7.29-11A3.51,3.51,0,0,0,312.34,30a8,8,0,0,0-4.53,1.74l-1.32-3.36a11.74,11.74,0,0,1,6.81-2.15c5.21,0,7.58,3.26,7.58,7.16,0,4.24-2.92,7.73-6.46,11.25l-2,2v.07h8.93Z"/></g><g id="_Group_4" data-name="&lt;Group&gt;"><path id="_Compound_Path_2" data-name="&lt;Compound Path&gt;" class="cls-1" d="M333.49,37.69a6.06,6.06,0,0,1,4.95,6c0,4-3.25,7.22-8.9,7.22a12.1,12.1,0,0,1-6.1-1.46l1.06-3.55a10,10,0,0,0,4.72,1.3c2.92,0,4.37-1.77,4.37-3.74,0-2.69-2.38-4-5-4H327V36.23h1.54c1.9,0,4.34-1,4.34-3.36,0-1.68-1.12-2.92-3.37-2.92a8.7,8.7,0,0,0-4.24,1.3l-1-3.36a12.57,12.57,0,0,1,6.33-1.65c4.66,0,7.1,2.69,7.1,5.86a5.83,5.83,0,0,1-4.18,5.51Z"/></g><g id="_Group_5" data-name="&lt;Group&gt;"><path id="_Compound_Path_3" data-name="&lt;Compound Path&gt;" class="cls-1" d="M78.44,29.6a40,40,0,0,1,6.4-.45c3,0,4.87.29,6.47,1.22a4.69,4.69,0,0,1,2.63,4.23,4.88,4.88,0,0,1-3.61,4.61v.07a5.42,5.42,0,0,1,4.35,5.32,5.72,5.72,0,0,1-2.27,4.58c-1.59,1.25-4.25,2-8.61,2a38.82,38.82,0,0,1-5.36-.32Zm4.91,8.26H85c2.6,0,4-1.06,4-2.66s-1.27-2.5-3.51-2.5a13.56,13.56,0,0,0-2.11.13Zm0,9.57a16.13,16.13,0,0,0,1.92.06c2.24,0,4.22-.83,4.22-3.11s-2-3-4.45-3H83.35Z"/><path id="_Compound_Path_4" data-name="&lt;Compound Path&gt;" class="cls-1" d="M98.07,29.6a44.05,44.05,0,0,1,6.59-.45c3.25,0,5.52.48,7.08,1.7a5.45,5.45,0,0,1,2,4.52,5.74,5.74,0,0,1-3.86,5.32v.1c1.53.61,2.37,2,2.92,4,.68,2.43,1.36,5.25,1.79,6.09h-5.07a26.73,26.73,0,0,1-1.53-5c-.58-2.69-1.53-3.43-3.54-3.46H103V50.9H98.07ZM103,38.89h1.95c2.47,0,3.93-1.22,3.93-3.11s-1.36-3-3.64-3a12.25,12.25,0,0,0-2.24.16Z"/><path id="_Compound_Path_5" data-name="&lt;Compound Path&gt;" class="cls-1" d="M122.74,45.36l-1.56,5.54H116l6.69-21.58h6.5L136,50.9h-5.33L129,45.36Zm5.55-3.65-1.36-4.58c-.39-1.28-.78-2.88-1.1-4.16h-.06c-.33,1.28-.65,2.91-1,4.16l-1.3,4.58Z"/><path id="_Compound_Path_6" data-name="&lt;Compound Path&gt;" class="cls-1" d="M143.93,29.31V50.9h-5V29.31Z"/><path id="_Compound_Path_7" data-name="&lt;Compound Path&gt;" class="cls-1" d="M148.22,50.9V29.31H154l4.55,7.91a62.46,62.46,0,0,1,3.57,7.4h.1a78.88,78.88,0,0,1-.42-9V29.31h4.55V50.9h-5.2l-4.68-8.33a79.73,79.73,0,0,1-3.8-7.62l-.1,0c.13,2.85.2,5.89.2,9.41v6.5Z"/><path id="_Compound_Path_8" data-name="&lt;Compound Path&gt;" class="cls-1" d="M177.37,45.87a12.8,12.8,0,0,0,5.49,1.34c2.27,0,3.48-.93,3.48-2.34s-1-2.11-3.67-3c-3.64-1.25-6-3.24-6-6.37,0-3.68,3.12-6.5,8.28-6.5A13.59,13.59,0,0,1,190.53,30L189.42,34a10.53,10.53,0,0,0-4.58-1c-2.14,0-3.18,1-3.18,2.08,0,1.38,1.23,2,4.06,3,3.87,1.41,5.68,3.4,5.68,6.44,0,3.62-2.83,6.69-8.84,6.69a14.49,14.49,0,0,1-6.2-1.31Z"/><path id="_Compound_Path_9" data-name="&lt;Compound Path&gt;" class="cls-1" d="M199,33.41H193.1v-4.1h16.83v4.1h-6V50.9h-5Z"/><path id="_Compound_Path_10" data-name="&lt;Compound Path&gt;" class="cls-1" d="M215.33,45.36l-1.56,5.54h-5.13l6.69-21.58h6.49l6.79,21.58h-5.33l-1.69-5.54Zm5.55-3.65-1.37-4.58c-.39-1.28-.78-2.88-1.1-4.16h-.07c-.33,1.28-.65,2.91-1,4.16L216,41.71Z"/><path id="_Compound_Path_11" data-name="&lt;Compound Path&gt;" class="cls-1" d="M233.08,33.41H227.2v-4.1H244v4.1h-6V50.9h-5Z"/><path id="_Compound_Path_12" data-name="&lt;Compound Path&gt;" class="cls-1" d="M251.64,29.31V50.9h-5V29.31Z"/><path id="_Compound_Path_13" data-name="&lt;Compound Path&gt;" class="cls-1" d="M276,39.88c0,7.08-4.35,11.37-10.75,11.37s-10.3-4.84-10.3-11c0-6.47,4.19-11.3,10.66-11.3C272.3,29,276,33.93,276,39.88Zm-15.82.29c0,4.23,2,7.21,5.33,7.21s5.26-3.14,5.26-7.33c0-3.88-1.89-7.21-5.29-7.21S260.15,36,260.15,40.17Z"/><path id="_Compound_Path_14" data-name="&lt;Compound Path&gt;" class="cls-1" d="M279.23,50.9V29.31H285l4.55,7.91a62.42,62.42,0,0,1,3.57,7.4h.1a79.14,79.14,0,0,1-.42-9V29.31h4.54V50.9h-5.2l-4.67-8.33a79.9,79.9,0,0,1-3.8-7.62l-.1,0c.13,2.85.19,5.89.19,9.41v6.5Z"/></g></g><g id="_Group_6" data-name="&lt;Group&gt;" class="cls-3"><rect id="_Rectangle_2" data-name="&lt;Rectangle&gt;" class="cls-1" x="58.44" y="6.25" width="20" height="20"/><rect id="_Rectangle_3" data-name="&lt;Rectangle&gt;" class="cls-1" x="338.44" y="6.25" width="20" height="20"/><rect id="_Rectangle_4" data-name="&lt;Rectangle&gt;" class="cls-1" x="58.44" y="51.25" width="20" height="20"/><rect id="_Rectangle_5" data-name="&lt;Rectangle&gt;" class="cls-1" x="338.44" y="51.25" width="20" height="20"/></g></g><g id="_Group_7" data-name="&lt;Group&gt;"><rect id="_Rectangle_6" data-name="&lt;Rectangle&gt;" class="cls-2" width="77.5" height="77.5"/><g id="_Clip_Group_" data-name="&lt;Clip Group&gt;"><path id="_Compound_Clipping_Path_2" data-name="&lt;Compound Clipping Path&gt;" class="cls-1" d="M38.44,19.82a6.68,6.68,0,0,0-3.9-3.68l-8.2-3.27A27.14,27.14,0,0,0,12.2,28.14a30.68,30.68,0,0,0-1.38,4.41,12.07,12.07,0,0,1,4.63,1L26,37.78a7.36,7.36,0,0,0,5.28,0,6.26,6.26,0,0,0,3.66-3.68L38.6,25a6.19,6.19,0,0,0-.16-5.22m-11,42.29L40.87,67.5A27.37,27.37,0,0,0,62.23,55.42a10.33,10.33,0,0,0-.57-2.29,6.82,6.82,0,0,0-4-3.67l-9.91-4.08a2.29,2.29,0,0,1-.74.24,3.62,3.62,0,1,1,2.52-4.42l9.84,4a7.8,7.8,0,0,0,5.44,0A7.94,7.94,0,0,0,67,43.74a27.82,27.82,0,0,0-5-21.88L45.91,15.49l1.38-3.43.28-.75a29.41,29.41,0,0,0-14.82-.63l3.41,1.39a11.29,11.29,0,0,1,6.5,6,10.52,10.52,0,0,1,.24,8.57l-3.57,9.14a10.74,10.74,0,0,1-6.17,6,11.65,11.65,0,0,1-8.77,0L13.83,37.62c-4.37-1.43-4,.34-3.64,3.79A29,29,0,0,0,26.45,64.89"/><g class="cls-4"><rect id="_Path_" data-name="&lt;Path&gt;" class="cls-1" x="9.46" y="9.53" width="58.95" height="60.02"/></g></g><g id="_Group_8" data-name="&lt;Group&gt;" class="cls-3"><rect id="_Rectangle_7" data-name="&lt;Rectangle&gt;" class="cls-5" width="10" height="10"/><rect id="_Rectangle_8" data-name="&lt;Rectangle&gt;" class="cls-5" x="67.5" width="10" height="10"/><rect id="_Rectangle_9" data-name="&lt;Rectangle&gt;" class="cls-5" y="67.5" width="10" height="10"/><rect id="_Rectangle_10" data-name="&lt;Rectangle&gt;" class="cls-5" x="67.5" y="67.5" width="10" height="10"/></g></g></g></g></svg>