<svg xmlns="http://www.w3.org/2000/svg" xmlns:xlink="http://www.w3.org/1999/xlink" viewBox="0 0 320.4 41.8"><defs><style>.cls-1{fill:none;}.cls-2{fill:#00a0db;}.cls-3{clip-path:url(#clip-path);}</style><clipPath id="clip-path"><path class="cls-1" d="M20.2,7.1a4.93,4.93,0,0,0-2.7-2.6L11.8,2.3A18.59,18.59,0,0,0,2,12.9,28.11,28.11,0,0,0,1,16a7.41,7.41,0,0,1,3.2.7l7.3,3a4.75,4.75,0,0,0,3.7,0,4.29,4.29,0,0,0,2.5-2.6l2.5-6.3a4.35,4.35,0,0,0,0-3.7M12.5,36.6l9.4,3.7a19.45,19.45,0,0,0,14.9-8.4,12.44,12.44,0,0,0-.4-1.6,5.1,5.1,0,0,0-2.8-2.6l-6.9-2.8c-.2.1-.4.1-.5.2a1.48,1.48,0,0,1-.7.1,2.5,2.5,0,1,1,2.4-3.1l6.8,2.8a5,5,0,0,0,3.8,0,5.6,5.6,0,0,0,1.5-1A19.2,19.2,0,0,0,36.5,8.7L25.4,4.1l1-2.4.2-.5A20,20,0,0,0,16.3.8l2.4,1A7.47,7.47,0,0,1,23.2,6a7.39,7.39,0,0,1,.2,6l-2.6,6.3a7.42,7.42,0,0,1-4.3,4.2,8.05,8.05,0,0,1-6.1,0l-7.3-3c-3-1-2.8.2-2.5,2.6A20.17,20.17,0,0,0,11.9,38.4"/></clipPath></defs><title>Asset 1</title><g id="Layer_2" data-name="Layer 2"><g id="Layer_1-2" data-name="Layer 1"><g id="_Group_" data-name="&lt;Group&gt;"><path id="_Compound_Path_" data-name="&lt;Compound Path&gt;" class="cls-2" d="M20.2,7.1a4.93,4.93,0,0,0-2.7-2.6L11.8,2.3A18.59,18.59,0,0,0,2,12.9,28.11,28.11,0,0,0,1,16a7.41,7.41,0,0,1,3.2.7l7.3,3a4.75,4.75,0,0,0,3.7,0,4.29,4.29,0,0,0,2.5-2.6l2.5-6.3a4.35,4.35,0,0,0,0-3.7M12.5,36.6l9.4,3.7a19.45,19.45,0,0,0,14.9-8.4,12.44,12.44,0,0,0-.4-1.6,5.1,5.1,0,0,0-2.8-2.6l-6.9-2.8c-.2.1-.4.1-.5.2a1.48,1.48,0,0,1-.7.1,2.5,2.5,0,1,1,2.4-3.1l6.8,2.8a5,5,0,0,0,3.8,0,5.6,5.6,0,0,0,1.5-1A19.2,19.2,0,0,0,36.5,8.7L25.4,4.1l1-2.4.2-.5A20,20,0,0,0,16.3.8l2.4,1A7.47,7.47,0,0,1,23.2,6a7.39,7.39,0,0,1,.2,6l-2.6,6.3a7.42,7.42,0,0,1-4.3,4.2,8.05,8.05,0,0,1-6.1,0l-7.3-3c-3-1-2.8.2-2.5,2.6A20.17,20.17,0,0,0,11.9,38.4"/><g class="cls-3"><rect id="_Path_" data-name="&lt;Path&gt;" class="cls-2" width="41" height="41.8"/></g></g><g id="_Group_2" data-name="&lt;Group&gt;"><g id="_Group_3" data-name="&lt;Group&gt;"><path id="_Path_2" data-name="&lt;Path&gt;" class="cls-2" d="M303.3,32.1H288.1V29.2l2.7-2.9c4.6-4.7,7.3-7.8,7.3-11a3.47,3.47,0,0,0-3.8-3.8,7.91,7.91,0,0,0-4.5,1.7l-1.3-3.4a11.94,11.94,0,0,1,6.8-2.2c5.2,0,7.6,3.3,7.6,7.2,0,4.2-2.9,7.7-6.5,11.2l-2,2v.1h8.9Z"/></g><g id="_Group_4" data-name="&lt;Group&gt;"><path id="_Path_3" data-name="&lt;Path&gt;" class="cls-2" d="M315.5,19.2a6.05,6.05,0,0,1,4.9,6c0,4-3.2,7.2-8.9,7.2a11.82,11.82,0,0,1-6.1-1.5l1.1-3.5a9.73,9.73,0,0,0,4.7,1.3c2.9,0,4.4-1.8,4.4-3.7,0-2.7-2.4-4-5-4H309V17.7h1.5c1.9,0,4.3-1,4.3-3.4,0-1.7-1.1-2.9-3.4-2.9a8,8,0,0,0-4.2,1.3l-1-3.4a12.88,12.88,0,0,1,6.3-1.6c4.7,0,7.1,2.7,7.1,5.9a5.94,5.94,0,0,1-4.1,5.6Z"/></g><g id="_Group_5" data-name="&lt;Group&gt;"><path id="_Compound_Path_2" data-name="&lt;Compound Path&gt;" class="cls-2" d="M60.4,11.2a36,36,0,0,1,6.4-.4c3,0,4.9.3,6.5,1.2a4.73,4.73,0,0,1,2.6,4.2c0,1.9-1.1,3.7-3.6,4.6v.1c2.5.7,4.4,2.5,4.4,5.3a5.64,5.64,0,0,1-2.3,4.6c-1.6,1.2-4.3,2-8.6,2-2.4,0-4.3-.2-5.4-.3Zm4.9,8.2h1.6c2.6,0,4-1.1,4-2.7s-1.3-2.5-3.5-2.5c-1.1,0-1.7.1-2.1.1Zm0,9.6a10.32,10.32,0,0,0,1.9.1c2.2,0,4.2-.8,4.2-3.1s-2-3-4.5-3H65.2v6Z"/><path id="_Compound_Path_3" data-name="&lt;Compound Path&gt;" class="cls-2" d="M80,11.2a40.06,40.06,0,0,1,6.6-.4c3.2,0,5.5.5,7.1,1.7a5.35,5.35,0,0,1,2,4.5,5.7,5.7,0,0,1-3.9,5.3h0c1.5.6,2.4,2,2.9,4,.7,2.4,1.4,5.3,1.8,6.1H91.4a21.89,21.89,0,0,1-1.5-5c-.6-2.7-1.5-3.4-3.5-3.5H84.9v8.5H80Zm4.9,9.2h1.9c2.5,0,3.9-1.2,3.9-3.1s-1.4-3-3.6-3a8.21,8.21,0,0,0-2.2.2Z"/><path id="_Compound_Path_4" data-name="&lt;Compound Path&gt;" class="cls-2" d="M104.7,26.9l-1.6,5.5H98l6.7-21.6h6.5L118,32.4h-5.3L111,26.9Zm5.6-3.6-1.4-4.6c-.4-1.3-.8-2.9-1.1-4.2h-.1c-.3,1.3-.6,2.9-1,4.2l-1.3,4.6Z"/><path id="_Path_4" data-name="&lt;Path&gt;" class="cls-2" d="M125.9,10.9V32.5h-5V10.9Z"/><path id="_Path_5" data-name="&lt;Path&gt;" class="cls-2" d="M130.2,32.4V10.9H136l4.5,7.9a72.06,72.06,0,0,1,3.6,7.4h.1a86.43,86.43,0,0,1-.4-9V10.9h4.5V32.5h-5.2l-4.7-8.3c-1.3-2.3-2.7-5.1-3.8-7.6h-.1c.1,2.8.2,5.9.2,9.4v6.5h-4.5Z"/><path id="_Path_6" data-name="&lt;Path&gt;" class="cls-2" d="M159.3,27.4a12.39,12.39,0,0,0,5.5,1.3c2.3,0,3.5-.9,3.5-2.3s-1-2.1-3.7-3c-3.6-1.2-6-3.2-6-6.4,0-3.7,3.1-6.5,8.3-6.5a13.14,13.14,0,0,1,5.6,1.1l-1.1,3.9a10.81,10.81,0,0,0-4.6-1c-2.1,0-3.2,1-3.2,2.1,0,1.4,1.2,2,4.1,3,3.9,1.4,5.7,3.4,5.7,6.4,0,3.6-2.8,6.7-8.8,6.7a14,14,0,0,1-6.2-1.3Z"/><path id="_Path_7" data-name="&lt;Path&gt;" class="cls-2" d="M180.9,15H175V10.9h16.8V15h-6V32.5h-5V15Z"/><path id="_Compound_Path_5" data-name="&lt;Compound Path&gt;" class="cls-2" d="M197.3,26.9l-1.6,5.5h-5.1l6.7-21.6h6.5l6.8,21.6h-5.3l-1.7-5.5Zm5.5-3.6-1.4-4.6c-.4-1.3-.8-2.9-1.1-4.2h-.1c-.3,1.3-.7,2.9-1,4.2l-1.3,4.6Z"/><path id="_Path_8" data-name="&lt;Path&gt;" class="cls-2" d="M215,15h-5.9V10.9h16.8V15h-6V32.5h-5V15Z"/><path id="_Path_9" data-name="&lt;Path&gt;" class="cls-2" d="M233.6,10.9V32.5h-5V10.9Z"/><path id="_Compound_Path_6" data-name="&lt;Compound Path&gt;" class="cls-2" d="M257.9,21.4c0,7.1-4.4,11.4-10.8,11.4s-10.3-4.8-10.3-11c0-6.5,4.2-11.3,10.7-11.3C254.3,10.5,257.9,15.5,257.9,21.4Zm-15.8.3c0,4.2,2,7.2,5.3,7.2s5.3-3.1,5.3-7.3c0-3.9-1.9-7.2-5.3-7.2S242.1,17.5,242.1,21.7Z"/><path id="_Path_10" data-name="&lt;Path&gt;" class="cls-2" d="M261.2,32.4V10.9H267l4.5,7.9a72.06,72.06,0,0,1,3.6,7.4h.1a86.44,86.44,0,0,1-.4-9V10.9h4.5V32.5h-5.2l-4.7-8.3c-1.3-2.3-2.7-5.1-3.8-7.6h-.1c.1,2.8.2,5.9.2,9.4v6.5h-4.5Z"/></g></g></g></g></svg>